<svg xmlns="http://www.w3.org/2000/svg" viewBox="0 0 218.11 47.61"><defs><style>.cls-1{fill:#fff;stroke-width:3px;}.cls-1,.cls-2{stroke:#000;stroke-miterlimit:10;}</style></defs><g id="Слой_2" data-name="Слой 2"><g id="Слой_2-2" data-name="Слой 2"><rect class="cls-1" x="1.5" y="1.5" width="214.84" height="44.61"/><polygon class="cls-2" points="33.21 9.09 33.21 9.1 11.02 9.1 33.21 9.09"/><path class="cls-2" d="M103.05,39.23v6.65H94.86c-10.8-.08-16.1-3-16.19-13.81V20.54H70.73V12.75h7.94v-10h8.44v10H101.8v7.79H87.11V31.25C86.81,40,96.57,39.23,103.05,39.23Z"/><path class="cls-2" d="M129.55,33.1V13.31H138V39.18h4.56v6.93H120.22c-6.9,0-10-.13-10-7V13.31h8.47V33.1s0,6.06,5.44,6.06S129.55,33.1,129.55,33.1Z"/><path class="cls-2" d="M198.54,36.07a8.06,8.06,0,0,1-1.72-3.41H217.4c.67-5.69-.16-13-3.69-16.37-4.82-5.66-17.54-5.55-22.2.34q-4,4.5-4,12.62a16.73,16.73,0,0,0,3.18,9.91c3,4.15,8.13,7,14.79,7h12.12v-7h-8.34C204.88,39.16,201,38.48,198.54,36.07Zm-.88-13.83c2-3,7.62-3.12,9.91-.58a7.17,7.17,0,0,1,1.7,5.13H196.21A8.07,8.07,0,0,1,197.66,22.24Z"/><rect class="cls-2" x="55.19" y="1.5" width="63.48" height="7.6"/><polygon class="cls-2" points="44.32 1.5 44.32 9.09 33.21 9.09 11.02 9.1 11.02 21.69 27.05 21.69 27.05 29.35 11.02 29.35 11.02 46.11 2.77 46.11 2.77 1.5 44.32 1.5"/><polygon class="cls-2" points="142.51 39.23 142.58 46.11 72.83 46.11 72.76 39.23 142.51 39.23"/><path class="cls-2" d="M205.49,46.11H170.37v-7H190.7C193.74,43.31,198.83,46.11,205.49,46.11Z"/><path class="cls-2" d="M180.6,25.6v7.06h-7.78V25.6s0-5.6-5.09-5.6c-5.11.16-5.11,5.6-5.11,5.6V39.16h7.75v7H147.18v-7h7V20h-5.75V12.75h14.19c.49,0,8.25,0,10.2,0C180.6,12.93,180.6,21.36,180.6,25.6Z"/><path class="cls-2" d="M55.24,33.1V13.31h8.47V39.18h4.56v6.93H45.91c-6.9,0-10-.13-10-7V13.31h8.47V33.1s0,6.06,5.44,6.06S55.24,33.1,55.24,33.1Z"/><polygon class="cls-2" points="68.22 39.07 68.27 46.11 2.77 46.11 2.77 39.23 68.22 39.07"/></g></g></svg>